# xmcd
#
# Track frame offsets: 
#        150
#        18773
#        34836
#        51225
#        60391
#        76346
#        91640
#        107168
#        121588
#        135609
#        152899
#        168846
#        184601
#        202203
#        219611
#        238035
#        251808
#        269814
#        286108
#        301339
#        314306
#        329385
#
# Disc length: 4603 seconds
#
# Revision: 0
# Processed by: cddbd v1.5.2PL0 Copyright (c) Steve Scherf et al.
# Submitted via: ExactAudioCopy v0.99pb3
#
DISCID=3211f916
DTITLE=DEANS - The Very Best of A Chance to Dance
DYEAR=2008
DGENRE=Country
TTITLE0=Waltz Across Texas
TTITLE1=Billy B Bad
TTITLE2=Land of Enchantment
TTITLE3=All Shook Up
TTITLE4=T-Bone Shuffle
TTITLE5=Tonight The Heartache's On Me
TTITLE6=I Just Want To Dance Wih You
TTITLE7=Hillbilly Shoes
TTITLE8=Country Down to my Soul
TTITLE9=Pizzirico
TTITLE10=Vertical Expression
TTITLE11=Patient Heart
TTITLE12=Live, Laugh, Love
TTITLE13=Somebody Like You
TTITLE14=Wave on Wave
TTITLE15=We Work it Out Side By Side
TTITLE16=Just A Kiss
TTITLE17=I Need a Breather
TTITLE18=Closer
TTITLE19=Blame it on the Bossa Nova
TTITLE20=Mr Mom
TTITLE21=You Need a Man Around Here
EXTD=
EXTT0=
EXTT1=
EXTT2=
EXTT3=
EXTT4=
EXTT5=
EXTT6=
EXTT7=
EXTT8=
EXTT9=
EXTT10=
EXTT11=
EXTT12=
EXTT13=
EXTT14=
EXTT15=
EXTT16=
EXTT17=
EXTT18=
EXTT19=
EXTT20=
EXTT21=
PLAYORDER=
